<?xml version="1.0" standalone="no"?><!DOCTYPE svg PUBLIC "-//W3C//DTD SVG 1.1//EN" "http://www.w3.org/Graphics/SVG/1.1/DTD/svg11.dtd"><svg t="1496209027555" class="icon" style="" viewBox="0 0 1024 1024" version="1.1" xmlns="http://www.w3.org/2000/svg" p-id="2373" xmlns:xlink="http://www.w3.org/1999/xlink" width="24" height="24"><defs><style type="text/css"></style></defs><path d="M512 250.5728c-55.3984 0-105.8816 27.3408-143.0528 72.8064-38.0928 45.4656-62.0544 109.9776-63.6928 181.1456 0 3.2768-0.8192 6.656-2.4576 9.1136l0 0c-2.4576 4.096-5.8368 9.1136-8.2944 14.0288-2.4576 4.9152-5.8368 9.9328-8.2944 15.6672-11.5712 23.9616-18.2272 48.8448-20.6848 69.5296-2.4576 16.5888-0.8192 28.9792 3.2768 33.0752l0 0c0 0 0-0.8192 0.8192-0.8192 4.096-1.6384 9.9328-5.8368 15.6672-11.5712 3.2768-3.2768 7.4752-8.2944 10.752-13.2096 4.9152-7.4752 15.6672-9.1136 23.1424-4.096 2.4576 2.4576 4.9152 4.9152 5.8368 7.4752l0 0c4.096 10.752 9.1136 21.504 14.0288 31.4368 4.9152 9.9328 10.752 19.8656 17.408 28.9792 4.9152 7.4752 3.2768 18.2272-4.096 23.1424-1.6384 0.8192-3.2768 1.6384-4.9152 2.4576-11.5712 4.096-20.6848 9.1136-27.3408 15.6672-4.096 4.096-6.656 8.2944-6.656 11.5712 0 8.2944 9.9328 16.5888 25.6 23.9616 19.8656 9.1136 47.104 14.848 78.5408 14.848 18.2272 0 34.7136-1.6384 50.4832-4.9152 14.848-3.2768 28.16-8.2944 37.1712-14.0288 5.8368-3.2768 12.3904-3.2768 17.408 0 9.9328 5.8368 22.3232 10.752 37.1712 14.0288s31.4368 4.9152 50.4832 4.9152c30.6176 0 58.7776-5.8368 78.5408-14.848 15.6672-7.4752 25.6-15.6672 25.6-23.9616 0-3.2768-2.4576-7.4752-6.656-11.5712-6.656-5.8368-16.5888-11.5712-28.16-15.6672-9.1136-3.2768-13.2096-12.3904-9.9328-21.504 0.8192-1.6384 0.8192-2.4576 1.6384-3.2768l0 0c6.656-9.1136 11.5712-19.0464 17.408-28.9792 5.8368-9.9328 9.9328-20.6848 14.0288-31.4368 3.2768-9.1136 13.2096-13.2096 21.504-9.9328 3.2768 1.6384 6.656 3.2768 8.2944 6.656 3.2768 4.096 6.656 8.2944 9.9328 11.5712 5.8368 6.656 10.752 10.752 15.6672 12.3904 0.8192 0.8192 0.8192 0.8192 0.8192 0.8192l0 0c4.096-4.096 4.9152-16.5888 3.2768-33.0752-2.4576-20.6848-9.1136-44.6464-20.6848-68.608 0 0 0-0.8192-0.8192-0.8192-2.4576-4.9152-4.9152-9.9328-7.4752-14.848-3.2768-4.9152-5.8368-9.9328-8.2944-14.0288-1.6384-3.2768-2.4576-6.656-2.4576-9.1136-1.6384-71.168-25.6-134.8608-63.6928-181.1456C617.8816 278.7328 567.3984 250.5728 512 250.5728L512 250.5728zM343.2448 301.056c42.9056-52.9408 102.6048-85.1968 168.7552-85.1968s125.7472 32.256 168.7552 85.1968c41.3696 50.4832 68.608 119.9104 71.168 197.7344 2.4576 4.096 4.9152 8.2944 7.4752 12.3904 2.4576 4.9152 5.8368 10.752 8.2944 16.5888 0 0 0 0.8192 0.8192 0.8192 13.2096 27.3408 21.504 55.3984 23.9616 79.36 3.2768 27.3408-0.8192 49.664-13.2096 61.2352-0.8192 0.8192-2.4576 1.6384-3.2768 2.4576-9.9328 7.4752-21.504 7.4752-33.0752 3.2768-7.4752-3.2768-14.848-8.2944-21.504-14.848-1.6384 3.2768-3.2768 6.656-4.9152 9.1136-2.4576 4.9152-5.8368 10.752-8.2944 15.6672 8.2944 4.096 14.848 9.1136 20.6848 14.848 10.752 10.752 17.408 23.1424 17.408 36.352 0 22.3232-17.408 41.3696-44.6464 54.5792-23.9616 10.752-56.2176 17.408-91.8528 17.408-20.6848 0-40.5504-2.4576-57.0368-6.656-14.848-3.2768-27.3408-7.4752-38.912-13.2096-10.752 5.8368-23.9616 9.9328-38.912 13.2096-17.408 4.096-37.1712 6.656-57.856 6.656-35.5328 0-67.7888-6.656-91.8528-17.408-28.16-12.3904-44.6464-31.4368-44.6464-54.5792 0-13.2096 6.656-25.6 17.408-36.352 5.8368-4.9152 12.3904-9.9328 20.6848-14.848-3.2768-4.9152-5.8368-9.9328-8.2944-15.6672-1.6384-3.2768-3.2768-6.656-4.9152-9.9328-7.4752 6.656-14.848 11.5712-21.504 14.848-12.3904 4.9152-23.1424 4.096-33.0752-3.2768-0.8192-0.8192-2.4576-1.6384-3.2768-2.4576-12.3904-11.5712-16.5888-33.8944-13.2096-61.2352 2.4576-23.9616 10.752-52.1216 23.9616-79.36 3.2768-6.656 5.8368-12.3904 9.1136-17.408 2.4576-4.096 4.9152-8.2944 7.4752-11.5712C277.0944 421.888 309.248 343.04 343.2448 301.056zM267.9808 645.12 267.9808 645.12 267.9808 645.12zM756.0192 645.12 756.0192 645.12 756.0192 645.12z" p-id="2374" fill="#E2A39B"></path></svg>